<?xml version="1.0" encoding="UTF-8"?>
<!-- Created with Inkscape (http://www.inkscape.org/) -->
<svg id="svg279" width="130mm" height="130mm" version="1.1" viewBox="0 0 130 130" xmlns="http://www.w3.org/2000/svg">
 <g id="layer1" transform="translate(-41.687 -77.852)">
  <circle id="circle520" cx="157.29" cy="131.29" r="2.4983" fill="#887774" stroke-width=".19325"/>
  <g id="text524" transform="matrix(.75078 0 0 .75078 79.583 56.396)" fill="#756561" stroke-width="1.3602" aria-label="அ">
   <path id="path526" d="m50.404 120.59c-14.206-0.18135-28.777 0.39295-37.361 1.7229-8.5843 1.2695-13.934 2.7808-16.05 4.5339-0.18136 0.30226-0.30226 0.72543-0.36271 1.2695-0.54407 4.4735 1.0881 8.01 4.8966 10.609 3.869 2.5994 10.035 4.1108 18.498 4.5339 5.5616 0.24181 13.482-0.6952 17.412-2.811 5.6221-3.0226 9.9444-9.6422 12.967-19.859zm1.7229-6.9823 0.09068-0.27203v-0.27204c1.8136-8.8261 1.0277-15.234-2.3576-19.224-3.3853-3.9899-2.5514-5.5919-11.257-4.806-3.3853 0.30226-6.3475 0.84634-8.8865 1.6322-2.4786 0.72543-4.0503 1.3602-4.7153 1.9043-0.24181 0.42317-0.42317 1.0277-0.54407 1.8136-1.1486 8.4029 1.4509 12.242 7.7984 11.516 2.539-0.30226 4.4433-0.8161 5.7128-1.5415 0.42317-0.90679 0.60452-2.0554 0.54407-3.4458-0.06045-2.9622-3.8085-3.6574-11.244-2.0856-0.72543 0.18136-1.1788 0-1.3602-0.54407-0.1209-0.60452 0.09068-1.3602 0.63475-2.267 0.60452-0.96724 1.3602-1.8438 2.267-2.6297 0.96724-0.78588 1.8438-1.2695 2.6297-1.4509 9.2492-1.9345 13.904-0.63475 13.965 3.8992 0.1209 5.1989-2.267 9.5817-7.1636 13.148-2.8413 2.1158-10.021 3.3853-14.132 3.8085-8.1586-1.1763-7.8725-3.7178-6.5425-13.874 0.36271-2.7204 1.6624-5.35 3.8992-7.889 1.2695-1.5113 2.811-2.8413 4.6246-3.9899 4.1108-2.6599 9.8538-4.2921 17.229-4.8966 9.5031 0.55565 9.171 1.0579 12.979 5.5314 3.8085 4.4735 4.7455 11.546 2.811 21.219-0.30226 1.6322-0.6952 3.2342-1.1788 4.806h0.27204l10.731 0.0907 2.4483-24.483c0.06045-0.72543 0.45339-1.5415 1.1788-2.4483 0.72543-0.96724 1.4811-1.7229 2.267-2.267 0.78588-0.54407 1.4206-0.87656 1.9043-0.99747 1.0881-0.30226 1.602 0.06045 1.5415 1.0881l-5.7128 56.856c-0.06045 0.72543-0.4534 1.5718-1.1788 2.539-0.72543 0.96724-1.4811 1.6927-2.267 2.1763-0.78588 0.54407-1.4206 0.87656-1.9043 0.99746-1.0881 0.30227-1.602-0.0302-1.5415-0.99746l2.539-25.481-12.363-0.0907c-2.1158 5.8639-4.9571 11.093-8.5238 15.687-7.617 9.7328-20.525 14.327-32.374 13.783-9.0074-0.42317-15.657-2.0554-19.949-4.8966-4.2317-2.8413-5.9848-7.0427-5.2594-12.604 0.30226-2.3576 1.2997-4.5339 2.9924-6.5289s3.5062-3.6272 5.4407-4.8966c4.7153-3.0831 11.063-5.1687 19.043-6.2568 7.9797-1.0882 21.734-1.5415 34.913-1.3602z" fill="#756561"/>
  </g>
  <g id="text307" transform="matrix(.88994 0 0 .88994 14.05 17.47)" fill="#887774" stroke-width=".26458" aria-label="Student Association">
   <path id="path1319" d="m51.408 147.25-1.5496 0.0465q-0.5854 0.0176-0.81389-0.13065-0.38758-0.28133-0.4-0.69455-0.0119-0.39601 0.22191-0.6443 0.13412-0.12466 0.69869-0.26225 0.53013-0.13656 0.83968-0.73179 0.30955-0.59523 0.28524-1.4045-0.02534-0.84367-0.43894-1.4172-0.39586-0.5568-0.96404-0.53974-0.65427 0.0197-0.94454 0.68324-0.21038 0.45439-0.41161 1.7874-0.30158 2.0081-0.88196 2.7666-0.81212 1.0756-2.1723 1.1165-1.3774 0.0414-2.2547-1.0524-0.87729-1.0938-0.93159-2.9017-0.04396-1.4635 0.60647-2.7583-0.4413-0.34864-0.45165-0.693-0.02741-0.91254 1.1434-0.94771l1.1536-0.0346q0.56818-0.0171 0.8144 0.14787 0.36985 0.26462 0.38329 0.71228 0.01138 0.37879-0.23913 0.64482-0.1169 0.12414-0.57764 0.27585-0.47848 0.135-0.80111 0.86849-0.30541 0.73297-0.27904 1.6111 0.02948 0.98141 0.42844 1.6415 0.41618 0.65959 0.98436 0.64253 0.60262-0.0181 0.91114-0.64777 0.22605-0.50656 0.42624-1.874 0.1976-1.4535 0.62044-2.2934 0.37584-0.68339 1.0182-1.099 0.6429-0.39845 1.3833-0.42069 1.3258-0.0398 2.2537 1.018 0.92842 1.075 0.97756 2.7107 0.04189 1.3946-0.4994 2.307 0.33076 0.1107 0.45594 0.26203 0.12518 0.15134 0.13294 0.40961 0.01552 0.51653-0.37377 0.75226-0.16856 0.12569-0.75396 0.14328z"/>
   <path id="path1321" d="m48.661 151.53-3.3927 0.69095q-0.48949 0.0997-0.6139 0.26566-0.2757 0.37258-0.06257 1.4191 0.28532 1.401 1.1064 2.4115 0.25786 0.31664 0.30942 0.56983 0.07219 0.35446-0.13287 0.64233-0.20506 0.28787-0.5764 0.36349-0.3207 0.0653-0.5645-0.096-0.22348-0.14786-0.5426-0.59266-0.43101-0.56264-0.79887-1.4194-0.38474-0.85333-0.52568-1.5454-0.30251-1.4854 0.16358-2.4768 0.46952-0.97458 1.5667-1.198l3.7134-0.75627-0.12375-0.60764q-0.12032-0.59077 0.0072-0.82769 0.19788-0.40946 0.61985-0.4954 0.48949-0.0997 0.82862 0.27072 0.15253 0.14473 0.26597 0.70173l0.12375 0.60765 1.536-0.31282q0.57389-0.11688 0.82769 7e-3 0.38914 0.18444 0.47852 0.62329 0.10313 0.50637-0.25384 0.82518-0.16161 0.15596-0.70173 0.26597l-1.536 0.31282 0.63595 3.1226q0.11688 0.57389 0.01309 0.84113-0.21819 0.39602-0.64017 0.48196-0.48949 0.0997-0.82862-0.27072-0.15597-0.16161-0.26597-0.70174z"/>
   <path id="path1323" d="m54.649 164.98-5.5348 2.1638q0.39514 1.0107-0.42306 1.3306-0.43316 0.16935-0.86269-0.1251-0.18129-0.13257-0.382-0.64595l-0.60839-1.5562 0.78611-0.30733q-0.81589-0.38385-1.2126-0.7836-0.39672-0.39975-0.66015-1.0736-0.45159-1.1551-0.15555-2.1956 0.35538-1.2671 1.7832-1.8254l2.984-1.1666-0.10035-0.25669-0.08504-0.1702-0.02509-0.0642q-0.13798-0.35295-0.01373-0.69745 0.14656-0.33472 0.49951-0.47271 0.46525-0.18189 0.8627 0.12511 0.17502 0.11653 0.382 0.64595l0.74637 1.9091-4.5562 1.7813q-1.1872 0.46413-0.6227 1.908 0.23834 0.60964 0.62601 0.93895 0.38768 0.32931 1.3124 0.7076l2.984-1.1666-0.22579-0.57755q-0.21952-0.5615-0.12808-0.8007 0.10266-0.44702 0.51978-0.6101 0.46525-0.18189 0.86269 0.12511 0.18129 0.13257 0.382 0.64595z"/>
   <path id="path1325" d="m62.335 171.61-7.9169 4.784 0.14254 0.23588q0.3029 0.50126 0.28602 0.7731-0.06355 0.46104-0.43212 0.68376-0.42754 0.25836-0.8714 0.0234-0.2012-0.0998-0.48628-0.57158l-1.0601-1.7544 0.53074-0.32071q-1.3875-0.6308-2.1091-1.825-1.0067-1.6659-0.64836-3.2712 0.38474-1.6614 1.9033-2.579t3.1536-0.47665q1.6114 0.43512 2.6181 2.1011 0.79288 1.3121 0.61115 2.71l1.8723-1.1314-0.14254-0.23588q-0.3029-0.50126-0.28602-0.7731 0.07829-0.46996 0.43212-0.68376 0.4128-0.24945 0.85666-0.0145 0.19229 0.0851 0.48628 0.57158zm-6.0064 0.75146q0.23029-0.98445-0.40223-2.0312-0.63252-1.0467-1.6022-1.2859-0.94606-0.23337-1.7422 0.2477-0.78137 0.47216-1.0442 1.436-0.23029 0.98445 0.40223 2.0312 0.62361 1.032 1.6022 1.2859 0.94606 0.23337 1.7274-0.23879 0.8256-0.49889 1.059-1.445z"/>
   <path id="path1327" d="m62.192 183.7-4.7119-5.4444q-0.77769 1.4704 0.72156 3.2027 0.65381 0.75544 2.2602 1.8482 0.29058 0.20413 0.44839 0.38648 0.23672 0.27352 0.19917 0.62496-0.02453 0.34016-0.31108 0.58816-0.39074 0.33818-1.005 0.0497-0.58991-0.28678-1.5015-1.0242-0.91156-0.73739-1.5203-1.4407-1.3414-1.55-1.3385-3.2838 0.02722-1.7321 1.3818-2.9045 1.3155-1.1385 3.0709-0.92645 1.7685 0.2008 3.031 1.6596 1.2963 1.4979 1.2301 3.2638-0.05327 1.7547-1.4339 2.9496zm-3.5059-6.4198 3.4043 3.9335q0.41177-0.62974 0.26394-1.4586-0.13656-0.81583-0.76782-1.5452-0.63126-0.72939-1.4434-0.98335-0.79907-0.26523-1.4571 0.0537z"/>
   <path id="path1329" d="m68.042 182.6-0.53574 0.65223q0.87517-0.0613 1.4276 0.0803 0.5657 0.15259 1.1248 0.61179 0.93175 0.76535 1.2084 1.8397 0.30664 1.255-0.66644 2.4396l-2.0446 2.4891q0.83858 0.68881 0.28097 1.3677-0.31707 0.38601-0.81384 0.31234-0.22295-0.0271-0.6489-0.37697l-1.2113-0.99494q-0.91844-0.75441-0.36084-1.4333 0.55761-0.67885 1.3962 0.01l2.0008-2.4359q0.79814-0.97169-0.42645-1.9776-0.47919-0.3936-1.0159-0.50008-0.5367-0.10648-1.4423 0.019l-2.0446 2.4891 0.07986 0.0656q0.43926 0.36081 0.51389 0.62274 0.10459 0.44258-0.17968 0.78866-0.30614 0.3727-0.80053 0.32327-0.22295-0.0271-0.6489-0.37697l-1.5307-1.2574q-0.43926-0.3608-0.51627-0.64698-0.10221-0.41833 0.18206-0.76441 0.328-0.39932 0.80053-0.32327 0.24957 0.049 0.6489 0.37696l0.07986 0.0656 2.6568-3.2345q-0.8034-0.7045-0.26766-1.3567 0.48107-0.58567 1.1613-0.13835 0.16829 0.0936 0.30139 0.20298z"/>
   <path id="path1331" d="m74.902 189.79-1.7114 3.0098q-0.24692 0.43424-0.20376 0.63712 0.09924 0.45275 1.0276 0.98065 1.2428 0.70671 2.5441 0.75309 0.40811 0.0141 0.63272 0.14181 0.31445 0.17881 0.39637 0.52262 0.08192 0.34382-0.1054 0.67324-0.16178 0.28451-0.44364 0.36202-0.25837 0.0711-0.80331 0.0188-0.7073-0.0455-1.5946-0.33207-0.8958-0.27158-1.5097-0.62068-1.3177-0.74928-1.7578-1.7525-0.42514-0.99474 0.1283-1.968l1.8732-3.2943-0.53906-0.30652q-0.52409-0.29801-0.61863-0.54992-0.17822-0.41839 0.03464-0.79274 0.24692-0.43425 0.74899-0.44599 0.20934-0.0197 0.70348 0.2613l0.53906 0.30653 0.77482-1.3626q0.2895-0.50912 0.54992-0.61863 0.3949-0.17176 0.78422 0.0496 0.44922 0.25544 0.4545 0.73402 0.01116 0.22432-0.26131 0.70348l-0.77482 1.3626 2.7702 1.5752q0.50912 0.28949 0.64212 0.54346 0.15473 0.42485-0.05813 0.7992-0.24692 0.43425-0.74899 0.44599-0.22432 0.0112-0.70348-0.26131z"/>
   <path id="path1333" d="m95.591 200.44-4.1395-0.72789-0.56919 0.9493 0.3902 0.0686q0.55985 0.0985 0.75355 0.28991 0.32252 0.35404 0.24794 0.77817-0.08651 0.49199-0.55539 0.67189-0.2075 0.0859-0.75039-0.01l-2.3073-0.40571q-1.1536-0.20285-1.0015-1.0681 0.08651-0.492 0.55539-0.6719 0.2075-0.0859 0.76735 0.0125l3.8698-6.193-1.1027-0.1939q-0.57682-0.10143-0.77052-0.2929-0.30854-0.33409-0.23098-0.77518 0.08353-0.47503 0.53842-0.67488 0.19053-0.0889 0.76735 0.0125l3.7493 0.65928 1.9842 9.0063q0.61075 0.1074 0.7845 0.31285 0.32849 0.3201 0.25093 0.7612-0.08651 0.49199-0.55539 0.67189-0.2075 0.0859-0.75039-0.01l-2.4091-0.42361q-0.55985-0.0984-0.75057-0.30687-0.32849-0.32011-0.25092-0.76121 0.08651-0.49199 0.55539-0.67189 0.2075-0.0859 0.75039 0.01l0.40716 0.0716zm-0.40826-1.8558-0.76954-3.5808-1.9619 3.1005z"/>
   <path id="path1335" d="m105.57 198.29-0.0852-0.1727q-0.72087-0.50329-1.8233-0.50901-0.67179-3e-3 -1.2068 0.18322-0.53487 0.16949-0.53612 0.41064-1e-3 0.25838 0.44562 0.43295 0.25793 0.0875 1.48 0.26607 1.7558 0.23304 2.5631 0.6851 0.58396 0.33032 0.90847 0.866t0.32138 1.1386q-6e-3 1.0852-1.1289 1.7856-1.1232 0.68321-2.8285 0.67436-1.5158-8e-3 -2.5984-0.51303-0.25945 0.20536-0.5695 0.20375-0.49954-3e-3 -0.77291-0.43465-0.11942-0.22456-0.11673-0.74131l0.0029-0.56844q0.0032-0.62011 0.17654-0.82592 0.26026-0.36039 0.72534-0.35797 0.67179 3e-3 0.89169 0.77978 0.75434 0.69295 2.2013 0.70045 0.84404 4e-3 1.4481-0.21642 0.62127-0.22071 0.62288-0.53076 2e-3 -0.39618-0.59966-0.62324-0.37815-0.15699-1.6177-0.30123-1.8421-0.19904-2.6832-0.77186-0.82386-0.57272-0.81841-1.6235 0.0055-1.0507 1.0252-1.7172 1.0371-0.68365 2.6218-0.67543 1.2402 6e-3 2.2713 0.47688 0.19189-0.4641 0.57084-0.46213 0.82682 4e-3 0.82074 1.1756l-3e-3 0.65456q-3e-3 0.58566-0.15923 0.80878-0.29461 0.34299-0.72525 0.34075-0.5512-3e-3 -0.82404-0.53827z"/>
   <path id="path1337" d="m115.14 197.2-0.11327-0.15575q-0.79575-0.37381-1.8832-0.19258-0.66266 0.11044-1.1582 0.38513-0.49841 0.25769-0.45877 0.49557 0.0425 0.25486 0.51257 0.35115 0.26902 0.0425 1.5037 0.0113 1.7699-0.068 2.6421 0.24072 0.6315 0.22655 1.0421 0.69947 0.41061 0.47292 0.50972 1.0676 0.17841 1.0704-0.80992 1.9511-0.99115 0.86371-2.6733 1.1441-1.4952 0.24919-2.6478-0.0651-0.22089 0.24637-0.52673 0.29734-0.49274 0.0821-0.83539-0.29735-0.15575-0.20106-0.24071-0.71079l-0.0934-0.56071q-0.10194-0.61168 0.034-0.84389 0.1954-0.39929 0.65416-0.47575 0.66265-0.11044 1.011 0.61735 0.86088 0.55505 2.2881 0.31718 0.83257-0.13876 1.3904-0.45875 0.57486-0.32283 0.52389-0.62867-0.0651-0.3908-0.69663-0.51257-0.39929-0.0906-1.6453-0.0227-1.8492 0.11609-2.7752-0.30586-0.90902-0.42478-1.0818-1.4612t0.7193-1.8662q0.9062-0.84955 2.4694-1.1101 1.2234-0.20389 2.3193 0.085 0.11044-0.48991 0.48425-0.55221 0.81557-0.13593 1.0081 1.0195l0.10761 0.64566q0.0963 0.5777-0.0198 0.82407-0.23221 0.38796-0.65699 0.45876-0.54372 0.0906-0.90336-0.3908z"/>
   <path id="path1339" d="m121.8 192.8q1.7558-0.61502 3.3899 0.0902 1.6504 0.69949 2.2142 2.3089 0.56947 1.6257-0.28938 3.1859-0.85885 1.5602-2.6471 2.1866-1.7883 0.62641-3.433-0.0568-1.6447-0.68324-2.2142-2.3089-0.57516-1.642 0.26743-3.1965 0.85886-1.5602 2.7122-2.2094zm0.57029 1.6802q-1.138 0.39863-1.68 1.3003t-0.21169 1.8446 1.3165 1.3093q0.98616 0.36638 2.0916-0.0209 1.1055-0.38724 1.6474-1.2889 0.54199-0.90167 0.2117-1.8446-0.3246-0.92665-1.3108-1.293-0.9756-0.38832-2.0648-7e-3z"/>
   <path id="path1341" d="m134.42 188.01 0.66201 1.1889q0.28491 0.5117 0.25002 0.76771-0.0648 0.45012-0.45611 0.668-0.34615 0.19274-0.67416 0.0994-0.19411-0.0299-0.51904-0.40105-0.27637-0.31929-0.67125-0.35573-0.84159-0.0243-1.8499 0.53716-1.1287 0.62849-1.4072 1.651-0.27347 0.96061 0.2377 1.8786 1.0559 1.8963 3.7648 0.38791 0.99328-0.55307 1.5014-1.0923 0.25738-0.28133 0.51443-0.91735 0.0951-0.28953 0.35094-0.43199 0.31604-0.17597 0.66749-0.0759 0.36649 0.0917 0.55085 0.42277 0.33519 0.60199-0.3648 1.6818-0.74018 1.043-2.4709 2.0067-2.1371 1.1899-3.7922 0.73142-1.4761-0.42021-2.2722-1.8499-0.92178-1.6555-0.40135-3.3056 0.51204-1.6652 2.2578-2.6373 1.2943-0.72066 2.4871-0.77367-0.13938-0.53358 0.32717-0.79335 0.73744-0.41062 1.3073 0.61277z"/>
   <path id="path1343" d="m138.62 183.53 3.7278 4.6282 1.6769-1.3507q0.4427-0.35657 0.71434-0.37631 0.47882-0.01 0.74895 0.32572 0.29175 0.3622 0.14006 0.86039-0.0853 0.22357-0.50121 0.55853l-4.7221 3.8035q-0.46953 0.37819-0.72515 0.3629-0.45721 0.0365-0.73815-0.3123-0.31335-0.38903-0.14006-0.86039 0.0585-0.20196 0.50121-0.55854l1.6769-1.3507-2.6257-3.2598-1.0732 0.86443q-0.48294 0.38899-0.73856 0.3737-0.44379 0.0257-0.72473-0.3231-0.32416-0.40245-0.15348-0.84959 0.0585-0.20196 0.51462-0.56934zm-2.2516-2.411 1.167 1.4488-1.6232 1.3074-1.167-1.4488z"/>
   <path id="path1345" d="m151.43 181.61-0.30996-0.27355q-0.33823 1.4246-1.421 2.6515-0.86624 0.98157-1.9983 1.2231-1.145 0.23012-1.8812-0.41956-0.64577-0.5699-0.77105-1.5994-0.20954-1.7931 1.3634-3.5754 0.5243-0.5941 1.3373-1.255l-0.29705-0.26215q-0.64577-0.56989-1.7286 0.65707-0.59269 0.67159-1.1368 1.7307-0.20746 0.39127-0.38982 0.59791-0.25075 0.28414-0.59114 0.30538-0.3533 0.01-0.65035-0.2523-0.41329-0.36473-0.20203-0.89049 0.61404-1.5028 1.6056-2.6264 1.0828-1.227 2.2164-1.4442 1.1321-0.24151 2.0491 0.56774l2.6735 2.3594 0.18237-0.20664q0.38752-0.43913 0.65193-0.50444 0.45892-0.0775 0.7818 0.20748 0.37455 0.33054 0.28333 0.82439-0.0236 0.20894-0.3997 0.63515zm-1.7709-1.5858-0.65869-0.58129q-0.95283 0.76729-1.4429 1.3226-0.59269 0.6716-0.76295 1.4633-0.15886 0.77877 0.21568 1.1093 0.21956 0.19377 0.6253 0.0464 0.39282-0.15877 0.76895-0.58497 0.98022-1.1107 1.2546-2.7754z"/>
   <path id="path1347" d="m150.84 172.46 2.9468 1.8176q0.42517 0.26224 0.62946 0.22634 0.45599-0.083 1.0166-0.99202 0.75056-1.2169 0.8433-2.5156 0.0286-0.40736 0.16427-0.62727 0.1899-0.30788 0.53642-0.37749 0.34651-0.0696 0.66905 0.12933 0.27856 0.17182 0.34598 0.45626 0.0618 0.26074-0.01 0.80347-0.0707 0.70523-0.38869 1.5817-0.30334 0.88555-0.6741 1.4866-0.79578 1.2902-1.8141 1.6942-1.0093 0.38942-1.9622-0.19837l-3.2254-1.9894-0.32555 0.5278q-0.3165 0.51313-0.57162 0.59863-0.42448 0.1632-0.791-0.0629-0.42517-0.26224-0.41901-0.76441-0.0122-0.20991 0.28621-0.69372l0.32555-0.52779-1.3342-0.8229q-0.49847-0.30746-0.59864-0.57163-0.15757-0.40077 0.0775-0.78196 0.27129-0.43982 0.74975-0.42805 0.22457-3e-3 0.69372 0.28622l1.3342 0.8229 1.6729-2.7123q0.30746-0.49847 0.56601-0.62234 0.43009-0.13949 0.79662 0.0866 0.42516 0.26224 0.41901 0.76441 3e-3 0.22457-0.28622 0.69372z"/>
   <path id="path1349" d="m154.63 161.18 5.5163 2.2108 0.801-1.9986q0.21146-0.52765 0.43867-0.67783 0.41279-0.24283 0.81252-0.0826 0.43171 0.17302 0.54333 0.68168 0.035 0.23673-0.16362 0.7324l-2.2556 5.6282q-0.22428 0.55962-0.45466 0.67142-0.38081 0.25564-0.79653 0.089-0.46369-0.18584-0.54333-0.68169-0.0478-0.20474 0.16362-0.73239l0.801-1.9986-3.8854-1.5572-0.51264 1.2791q-0.23069 0.57561-0.46107 0.68741-0.3744 0.23966-0.79012 0.073-0.47968-0.19224-0.54973-0.66569-0.0478-0.20475 0.17002-0.74838zm-3.1436-1.0001 1.7268 0.69206-0.77537 1.9347-1.7268-0.69207z"/>
   <path id="path1351" d="m156.77 153.05q0.38706-1.8196 1.8388-2.8492 1.4554-1.0465 3.1234-0.69166 1.6848 0.35839 2.5714 1.903 0.88659 1.5446 0.49236 3.398t-1.8327 2.9034q-1.4385 1.05-3.1234 0.69165-1.7017-0.36197-2.5919-1.8898-0.88659-1.5446-0.47802-3.4654zm1.7318 0.38599q-0.25087 1.1794 0.23778 2.111 0.48865 0.93166 1.4659 1.1395 0.97722 0.20787 1.8028-0.44424 0.82554-0.65211 1.0692-1.7978 0.2437-1.1457-0.24495-2.0774-0.48865-0.93166-1.4659-1.1395-0.96037-0.20428-1.7859 0.44782-0.83881 0.63168-1.0789 1.7605z"/>
   <path id="path1353" d="m158.07 145.8 0.84336 0.034q-0.57672-0.66111-0.79686-1.1872-0.21945-0.54327-0.1903-1.2662 0.0486-1.2048 0.7387-2.0734 0.81616-1.0015 2.348-0.9397l3.2186 0.12978q0.0437-1.0843 0.9215-1.0489 0.49914 0.0201 0.73996 0.46083 0.11285 0.19418 0.0906 0.74495l-0.0632 1.5662q-0.0479 1.1876-0.92567 1.1522-0.87779-0.0354-0.83406-1.1197l-3.1497-0.12701q-1.2564-0.0507-1.3203 1.5328-0.025 0.61961 0.21376 1.112 0.23874 0.49233 0.885 1.139l3.2186 0.12978 4e-3 -0.10327q0.0229-0.56798 0.18683-0.78548 0.28996-0.35034 0.73745-0.3323 0.48193 0.0194 0.74065 0.44361 0.11285 0.19419 0.0906 0.74496l-0.0798 1.9793q-0.0229 0.56798-0.20473 0.802-0.27205 0.33382-0.71955 0.31578-0.51635-0.0208-0.74065-0.44362-0.11146-0.2286-0.0906-0.74495l4e-3 -0.10327-4.1824-0.16864q-0.0774 1.0657-0.92082 1.0317-0.7573-0.0305-0.81074-0.84295-0.0268-0.19071-0.0198-0.36283z"/>
  </g>
  <g id="text1192" transform="matrix(.88994 0 0 .88994 14.05 17.47)" fill="#887774" stroke-width=".26458" aria-label="Agaram Tamil">
   <path id="path1198" d="m55.751 111.01-2.0646 3.661 0.70563 0.85278 0.19461-0.3451q0.27923-0.49513 0.52426-0.61403 0.44122-0.18624 0.81632 0.0253 0.43512 0.24538 0.44864 0.7474 0.01195 0.22428-0.25882 0.70441l-1.1508 2.0405q-0.57538 1.0203-1.3406 0.58874-0.43512-0.24538-0.44864-0.7474-0.01195-0.22428 0.26728-0.71941l-4.5512-5.711-0.55 0.97526q-0.28769 0.51014-0.53273 0.62904-0.41776 0.1797-0.80786-0.0403-0.42011-0.23692-0.4571-0.7324-0.02041-0.20927 0.26728-0.71941l1.87-3.3159 9.1531 1.1276q0.30461-0.54014 0.55619-0.63558 0.41121-0.20316 0.80132 0.0168 0.43512 0.24538 0.44864 0.7474 0.01195 0.22428-0.25882 0.7044l-1.2015 2.1306q-0.27923 0.49513-0.53927 0.60557-0.41121 0.20316-0.80132-0.0168-0.43512-0.24538-0.44864-0.7474-0.01195-0.22428 0.25882-0.70441l0.20308-0.36009zm-1.8858-0.2329-3.6327-0.46659 2.2704 2.8822z"/>
   <path id="path1200" d="m59.12 99.431-0.4709-0.40348 1.3337-1.5566q0.38106-0.44474 0.64449-0.51392 0.44653-0.07108 0.77354 0.20911 0.39242 0.33623 0.30656 0.80708-0.03172 0.22234-0.39037 0.64092l-0.19053 0.22237 4.7744 4.0908q1.0726 0.91904 1.1513 2.2568 0.08993 1.3247-0.85152 2.4234l-1.2889 1.5043q-0.39227 0.45782-0.64636 0.48963-0.44278 0.11966-0.78288-0.17175-0.37934-0.32502-0.29535-0.82015 0.03172-0.22235 0.39037-0.64093l1.2553-1.465q0.48194-0.56247 0.4594-1.1716-0.01133-0.62216-0.53455-1.0705l-0.73252-0.62763q-0.09689 1.4368-0.97109 2.4571-1.1544 1.3473-2.8172 1.4877-1.6628 0.14044-2.984-0.99154-1.3342-1.1432-1.4504-2.8079-0.12923-1.6759 1.0252-3.0232 0.95266-1.1119 2.2922-1.3251zm-0.91131 2.4403q-0.66126 0.77176-0.60876 1.7695 0.05063 0.97341 0.78314 1.601 0.7456 0.63884 1.7283 0.55085 0.98087-0.11228 1.6421-0.88404 0.66126-0.77176 0.61063-1.7452-0.0525-0.9977-0.77194-1.6141-0.75868-0.65005-1.7283-0.55084-0.98274 0.088-1.6552 0.87283z"/>
   <path id="path1202" d="m72.069 97.247-0.2557-0.32485q-0.58899 1.3405-1.8749 2.3526-1.0287 0.80971-2.1858 0.84362-1.1677 0.0204-1.775-0.75115-0.5327-0.67677-0.47072-1.712 0.11646-1.8016 1.9843-3.2718 0.62263-0.49009 1.5413-0.99398l-0.24504-0.31131q-0.5327-0.67677-1.8186 0.33537-0.70384 0.55401-1.4296 1.4979-0.27446 0.34756-0.49103 0.51803-0.29778 0.23439-0.63643 0.19405-0.34931-0.05387-0.59435-0.36519-0.34093-0.43313-0.03853-0.9123 0.87438-1.3678 2.052-2.2947 1.2859-1.0121 2.4401-1.0219 1.1571-0.0339 1.9135 0.92711l2.2054 2.8018 0.21657-0.17047q0.4602-0.36224 0.73205-0.37892 0.46536 0.0064 0.73172 0.34475 0.30897 0.39253 0.1304 0.86191-0.06078 0.20129-0.50744 0.55287zm-1.4567-1.8785-0.54336-0.69031q-1.0753 0.58336-1.6574 1.0415-0.70384 0.55401-1.0138 1.3021-0.29637 0.73748 0.0126 1.13 0.18112 0.2301 0.60675 0.15814 0.41497-0.0855 0.86164-0.43709 1.164-0.91625 1.7335-2.5044z"/>
   <path id="path1204" d="m75.901 85.829 0.5176 1.0122q0.57478-1.1839 1.0014-1.7116 0.4188-0.54305 1.0016-0.84107 0.82818-0.42349 1.8395-0.18612 0.6173 0.10998 0.8212 0.50873 0.17253 0.33741 0.06012 0.68509-0.11241 0.34769-0.43448 0.51238-0.2914 0.14901-0.75463 0.03764-0.46323-0.11137-0.75463 0.03764-0.38342 0.19606-0.763 0.8158-0.36425 0.61189-1.0133 2.1046l1.1842 2.3158 2.1778-1.1136q0.52145-0.26664 0.79141-0.23056 0.47073 0.08819 0.66679 0.4716 0.22743 0.44476-0.03835 0.87088-0.12914 0.20147-0.61992 0.45242l-4.6623 2.3841q-0.52145 0.26664-0.79925 0.21523-0.44755-0.0807-0.64361-0.46411-0.22743-0.44476 0.03835-0.87088 0.09847-0.18578 0.60458-0.44458l0.90486-0.4627-1.9057-3.7268-0.55212 0.28233q-0.53678 0.27449-0.78391 0.20739-0.43971-0.06536-0.64361-0.46411-0.22743-0.44476 0.03085-0.8477 0.09063-0.20112 0.59674-0.45992z"/>
   <path id="path1206" d="m91.056 88.206-0.11399-0.39738q-1.0518 1.0185-2.6248 1.4698-1.2584 0.36098-2.3425-0.04484-1.0889-0.42238-1.3596-1.3662-0.23749-0.82788 0.21108-1.763 0.78856-1.624 3.0735-2.2794 0.76165-0.21849 1.8026-0.3379l-0.10924-0.38083q-0.23749-0.82788-1.8105-0.37666-0.861 0.24699-1.8896 0.8467-0.38544 0.21809-0.65037 0.29408-0.36427 0.1045-0.66257-0.06082-0.30305-0.18187-0.4123-0.5627-0.15199-0.52985 0.30905-0.85922 1.3264-0.93602 2.7669-1.3492 1.573-0.45122 2.6453-0.0241 1.0841 0.40582 1.4213 1.5814l0.9832 3.4274 0.26492-0.076q0.56296-0.16149 0.82096-0.07422 0.42846 0.18174 0.5472 0.59568 0.13774 0.48017-0.20495 0.84728-0.13233 0.1634-0.67873 0.32014zm-0.63891-2.2897-0.24224-0.84444q-1.216 0.13379-1.928 0.33803-0.861 0.24699-1.4306 0.82255-0.55306 0.57082-0.41532 1.051 0.08075 0.28148 0.50201 0.37568 0.41652 0.07764 0.96292-0.0791 1.424-0.40848 2.5513-1.6637z"/>
   <path id="path1208" d="m96.497 79.285 0.03523 0.41191q0.75088-0.72118 1.4374-0.77989 1.0126-0.0866 1.8755 0.70402 0.71609-0.92566 1.7459-1.0137 0.99545-0.08514 1.7034 0.51127 0.72513 0.59494 0.81027 1.5904l0.33027 3.8616q1.0469-0.08954 1.1218 0.78576 0.0749 0.8753-1.0922 0.97512l-1.6476 0.14092-0.46678-5.4578q-0.0323-0.37758-0.18281-0.5203t-0.49377-0.11336q-0.34325 0.02936-0.60465 0.20731-0.26139 0.17795-0.66653 0.69668l0.30825 3.6042q0.49773-0.04257 0.79288 0.17422 0.31085 0.19816 0.34608 0.61007 0.0396 0.4634-0.36448 0.79186-0.17852 0.13629-0.72773 0.18326l-1.6476 0.14092-0.46678-5.4578q-0.03229-0.37758-0.18281-0.5203-0.15051-0.14272-0.49377-0.11336-0.36042 0.03083-0.63751 0.22741-0.27709 0.19658-0.63367 0.67658l0.30825 3.6042q1.0813-0.09248 1.1561 0.78283 0.03963 0.4634-0.36448 0.79186-0.17852 0.13629-0.72773 0.18326l-1.5447 0.13211q-0.58354 0.04991-0.82133-0.10264-0.38244-0.22662-0.4206-0.67285-0.07486-0.8753 0.97207-0.96484l-0.35669-4.1706q-1.0499 0.05521-1.1218-0.78576-0.06459-0.75516 0.73473-0.90997 0.18586-0.05047 0.35748-0.06515z"/>
   <path id="path1210" d="m124.23 81.153-2.0345 6.4567 1.1172 0.35203q0.54216 0.17084 0.70915 0.386 0.27343 0.39319 0.14401 0.80392-0.15013 0.47645-0.63851 0.59346-0.23339 0.05288-0.7427-0.1076l-3.8937-1.2269q-0.54217-0.17084-0.70398-0.40243-0.26736-0.35515-0.13276-0.78231 0.15531-0.49288 0.62209-0.59864 0.21696-0.05806 0.74269 0.1076l1.1008 0.34685 2.0345-6.4567-1.8072-0.56946-0.49698 1.5772q-0.17084 0.54216-0.386 0.70915-0.37158 0.26218-0.79874 0.12758-0.49288-0.15531-0.59864-0.62208-0.0477-0.24982 0.1076-0.74269l1.025-3.253 8.6746 2.7334-1.025 3.253q-0.18119 0.57502-0.386 0.70915-0.37158 0.26218-0.79874 0.12758-0.47645-0.15013-0.59864-0.62208-0.0477-0.24982 0.1076-0.74269l0.49699-1.5772z"/>
   <path id="path1212" d="m131.92 93.895 0.19737-0.36325q-1.4641-0.01138-2.902-0.79266-1.1503-0.62503-1.6386-1.6745-0.48013-1.0647-0.0114-1.9274 0.41121-0.75677 1.3867-1.1089 1.701-0.60489 3.7896 0.53003 0.69623 0.3783 1.5221 1.0231l0.18915-0.34812q0.41121-0.75677-1.0267-1.5381-0.78704-0.42765-1.9409-0.72136-0.42773-0.11479-0.6699-0.24637-0.33298-0.18093-0.42974-0.50796-0.0885-0.34217 0.10062-0.69028 0.26317-0.48434 0.82283-0.39588 1.602 0.26274 2.9188 0.97823 1.4379 0.78128 1.9029 1.8377 0.48835 1.0495-0.0956 2.1241l-1.7024 3.133 0.24216 0.13158q0.51461 0.27962 0.63736 0.52275 0.17803 0.43001-0.0276 0.8084-0.23849 0.43893-0.74024 0.46036-0.20893 0.02371-0.7084-0.24768zm1.15-2.0805 0.41942-0.77191q-0.96079-0.75731-1.6116-1.1109-0.78705-0.42765-1.5968-0.41672-0.79457 0.01916-1.0331 0.45808-0.13981 0.2573 0.0945 0.61986 0.24252 0.34742 0.74199 0.61881 1.3016 0.70727 2.9856 0.60282z"/>
   <path id="path1214" d="m142.06 91.352-0.26393 0.31819q1.041 0.01307 1.5713 0.45297 0.78223 0.64884 0.84223 1.8176 1.1597-0.15702 1.9552 0.50282 0.76896 0.63785 0.85486 1.5596 0.0992 0.9327-0.53868 1.7017l-2.4744 2.9831q0.80874 0.67084 0.24787 1.347t-1.4624-0.0717l-1.2728-1.0558 3.4972-4.2161q0.24194-0.29168 0.23485-0.49898-7e-3 -0.2073-0.27225-0.42725-0.26516-0.21995-0.57626-0.27658-0.31111-0.05664-0.96374 0.02866l-2.3094 2.7842q0.38448 0.31892 0.44264 0.6805 0.0824 0.35931-0.18151 0.6775-0.29693 0.35796-0.81534 0.30842-0.22282-0.02817-0.64707-0.38008l-1.2728-1.0557 3.4972-4.216q0.24195-0.29168 0.23486-0.49898-7e-3 -0.2073-0.27225-0.42725-0.27842-0.23094-0.61378-0.28532-0.33536-0.05438-0.92622 0.03739l-2.3094 2.7842q0.83525 0.69284 0.27438 1.369-0.29693 0.35797-0.81533 0.30842-0.22282-0.02817-0.64708-0.38008l-1.1932-0.98976q-0.45077-0.37391-0.51315-0.64946-0.11346-0.42982 0.17247-0.77452 0.56087-0.67616 1.3696-0.0053l2.6724-3.2217q-0.78674-0.69736-0.24787-1.347 0.48388-0.58335 1.162-0.13277 0.16783 0.09445 0.30041 0.20443z"/>
   <path id="path1216" d="m153.27 102.4-4.6107 3.7495 1.3585 1.6705q0.35865 0.44102 0.37965 0.71257 0.0119 0.47877-0.3222 0.75047-0.36083 0.29344-0.85972 0.14409-0.22397-0.0843-0.56088-0.49859l-3.8256-4.7042q-0.38038-0.46775-0.36629-0.72343-0.0386-0.45704 0.30884-0.73961 0.38756-0.31517 0.85973-0.14409 0.20223 0.0576 0.56087 0.49859l1.3585 1.6705 3.2475-2.6409-0.86945-1.0691q-0.39125-0.48111-0.37715-0.7368-0.0278-0.44367 0.3197-0.72624 0.40093-0.32604 0.84886-0.15745 0.20223 0.05756 0.57174 0.51195zm2.4004-2.2629-1.4433 1.1738-1.315-1.6171 1.4433-1.1738z"/>
   <path id="path1218" d="m162.7 110.99-8.1683 4.3409 1.0105 1.9014q0.26676 0.50196 0.23495 0.77245-0.0807 0.47206-0.46102 0.67415-0.41069 0.21826-0.87137-0.0246-0.20348-0.12594-0.45407-0.59748l-2.8454-5.3542q-0.28293-0.53238-0.21974-0.78054 0.0503-0.45589 0.44581-0.66607 0.44111-0.23443 0.87137 0.0246 0.18731 0.0955 0.45407 0.59749l1.0105 1.9014 6.6168-3.5164-0.6467-1.2169q-0.29101-0.54759-0.22782-0.79575 0.028-0.42452 0.45389-0.65086 0.45633-0.24251 0.86329 9e-3 0.18731 0.0955 0.46215 0.6127z"/>
  </g>
  <circle id="circle2026" cx="56.862" cy="131.29" r="2.4983" fill="#887774" stroke-width=".19325"/>
 </g>
</svg>
